<svg viewBox="0 0 800 800" preserveAspectRatio="xMidYMid meet" style="font: 10px sans-serif;" version="1.1" xmlns="http://www.w3.org/2000/svg"><g id="circle" transform="translate(400,400)"><circle r="285.7142857142857" style="fill: none;"></circle><g class="group"><title>fria:FRIA-reportChallenge</title><path id="group0" d="M1.7494954273533616e-14,-285.7142857142857A285.7142857142857,285.7142857142857 0 1,1 -145.45425603497438,-245.91810112827528L-133.23609852803654,-225.26098063350014A261.7142857142857,261.7142857142857 0 1,0 1.6025378114556795e-14,-261.7142857142857Z" style="fill: rgb(31, 119, 180);"></path><text dy=".35em" transform="rotate(74.69838641144173)translate(287.7142857142857)">fria:FRIA-reportChallenge</text></g><g class="group"><title>fria:FRIA-reportEvaluation</title><path id="group1" d="M-135.5038070158785,-251.53801173068862A285.7142857142857,285.7142857142857 0 0,1 -80.89632844440817,-274.02269450802595L-74.10103685507788,-251.0047881693518A261.7142857142857,261.7142857142857 0 0,0 -124.12148722654469,-230.40881874531078Z" style="fill: rgb(174, 199, 232);"></path><text dy=".35em" transform="rotate(247.62053741229334)translate(287.7142857142857)rotate(180)" style="text-anchor: end;">fria:FRIA-reportEvaluation</text></g><g class="group"><title>fria:FRIA-reportImpactLevel</title><path id="group2" d="M-69.87363490473072,-277.0384958925833A285.7142857142857,285.7142857142857 0 0,1 -11.425524053324361,-285.48574476027943L-10.465780032845116,-261.50494220041594A261.7142857142857,261.7142857142857 0 0,0 -64.00424957273334,-253.76726223760627Z" style="fill: rgb(255, 127, 14);"></path><text dy=".35em" transform="rotate(261.77623541059)translate(287.7142857142857)rotate(180)" style="text-anchor: end;">fria:FRIA-reportImpactLevel</text></g><path class="chord" d="M-256.05080808334515,-54.151186753428846A261.7142857142857,261.7142857142857 0 0,1 -212.61635474531298,-152.60620250092725Q 0,0 -74.10103685507788,-251.0047881693518Q 0,0 -256.05080808334515,-54.151186753428846Z" style="fill: rgb(174, 199, 232); fill-opacity: 0.67; stroke: rgb(0, 0, 0); stroke-width: 0.25px; cursor: pointer;"></path><path class="chord" d="M-212.61635474531298,-152.60620250092725A261.7142857142857,261.7142857142857 0 0,1 -133.23609852803654,-225.26098063350014Q 0,0 -10.465780032845116,-261.50494220041594Q 0,0 -212.61635474531298,-152.60620250092725Z" style="fill: rgb(255, 127, 14); fill-opacity: 0.67; stroke: rgb(0, 0, 0); stroke-width: 0.25px; cursor: pointer;"></path><path class="chord" d="M-124.12148722654469,-230.40881874531078A261.7142857142857,261.7142857142857 0 0,1 -74.10103685507788,-251.0047881693518Q 0,0 -124.12148722654469,-230.40881874531078Z" style="fill: rgb(174, 199, 232); fill-opacity: 0.67; stroke: rgb(0, 0, 0); stroke-width: 0.25px; cursor: pointer;"></path><path class="chord" d="M-64.00424957273334,-253.76726223760627A261.7142857142857,261.7142857142857 0 0,1 -10.465780032845116,-261.50494220041594Q 0,0 -64.00424957273334,-253.76726223760627Z" style="fill: rgb(255, 127, 14); fill-opacity: 0.67; stroke: rgb(0, 0, 0); stroke-width: 0.25px; cursor: pointer;"></path><path class="chord" d="M1.6025378114556795e-14,-261.7142857142857A261.7142857142857,261.7142857142857 0 1,1 -256.05080808334515,-54.151186753428846Q 0,0 1.6025378114556795e-14,-261.7142857142857Z" style="fill: rgb(31, 119, 180); fill-opacity: 0.67; stroke: rgb(0, 0, 0); stroke-width: 0.25px; cursor: pointer;"></path></g></svg>